<svg xmlns="http://www.w3.org/2000/svg" xmlns:xlink="http://www.w3.org/1999/xlink" width="250" zoomAndPan="magnify" viewBox="0 0 187.5 187.499992" height="250" preserveAspectRatio="xMidYMid meet" version="1.0"><defs><clipPath id="307fb21c94"><path d="M 72.796875 75.796875 L 112.402344 75.796875 L 112.402344 115.402344 L 72.796875 115.402344 Z M 72.796875 75.796875 " clip-rule="nonzero"/></clipPath><clipPath id="0aa0fec0df"><path d="M 57 64 L 93 64 L 93 111 L 57 111 Z M 57 64 " clip-rule="nonzero"/></clipPath><clipPath id="2f8d2abf0a"><path d="M 77.074219 63.910156 L 92.933594 94.722656 L 62.125 110.585938 L 46.261719 79.773438 Z M 77.074219 63.910156 " clip-rule="nonzero"/></clipPath><clipPath id="be5d29ef74"><path d="M 61.890625 111.3125 L 46.027344 80.503906 L 76.839844 64.640625 L 92.699219 95.453125 Z M 61.890625 111.3125 " clip-rule="nonzero"/></clipPath><clipPath id="b92a2a36f0"><path d="M 17.257812 134.285156 L -21.824219 58.363281 L 54.097656 19.28125 L 93.179688 95.203125 Z M 17.257812 134.285156 " clip-rule="nonzero"/></clipPath><clipPath id="9ac81929dc"><path d="M 37 45 L 92 45 L 92 116 L 37 116 Z M 37 45 " clip-rule="nonzero"/></clipPath><clipPath id="a2c73e5f93"><path d="M 20.847656 65.46875 L 71.347656 45.09375 L 91.722656 95.59375 L 41.222656 115.96875 Z M 20.847656 65.46875 " clip-rule="nonzero"/></clipPath><clipPath id="1f310f08b8"><path d="M 73.355469 44.285156 L 22.855469 64.660156 L 43.230469 115.160156 L 93.730469 94.785156 Z M 73.355469 44.285156 " clip-rule="nonzero"/></clipPath><clipPath id="bb4d177538"><path d="M 43.140625 -30.601562 L -84.257812 20.792969 L -32.859375 148.191406 L 94.539062 96.792969 Z M 43.140625 -30.601562 " clip-rule="nonzero"/></clipPath><clipPath id="d9502e0cee"><path d="M 28.898438 100 L 113.058594 100 L 113.058594 163 L 28.898438 163 Z M 28.898438 100 " clip-rule="nonzero"/></clipPath><clipPath id="054a47bff6"><path d="M 73.339844 24.691406 L 156.957031 24.691406 L 156.957031 87 L 73.339844 87 Z M 73.339844 24.691406 " clip-rule="nonzero"/></clipPath><clipPath id="2f2c7d9957"><path d="M 93 79 L 129 79 L 129 127 L 93 127 Z M 93 79 " clip-rule="nonzero"/></clipPath><clipPath id="2bea7f3f92"><path d="M 124.53125 79.898438 L 140.394531 110.710938 L 109.582031 126.574219 L 93.722656 95.761719 Z M 124.53125 79.898438 " clip-rule="nonzero"/></clipPath><clipPath id="5027afb956"><path d="M 124.53125 79.898438 L 140.394531 110.710938 L 109.582031 126.574219 L 93.722656 95.761719 Z M 124.53125 79.898438 " clip-rule="nonzero"/></clipPath><clipPath id="23533aeacc"><path d="M 169.160156 56.925781 L 208.246094 132.847656 L 132.324219 171.929688 L 93.242188 96.011719 Z M 169.160156 56.925781 " clip-rule="nonzero"/></clipPath><clipPath id="273a8adfc8"><path d="M 92 76 L 148 76 L 148 147 L 92 147 Z M 92 76 " clip-rule="nonzero"/></clipPath><clipPath id="651d02944d"><path d="M 91.335938 96.949219 L 141.074219 74.78125 L 163.242188 124.523438 L 113.503906 146.691406 Z M 91.335938 96.949219 " clip-rule="nonzero"/></clipPath><clipPath id="a10828eb77"><path d="M 114.382812 148.667969 L 164.125 126.5 L 141.957031 76.761719 L 92.214844 98.929688 Z M 114.382812 148.667969 " clip-rule="nonzero"/></clipPath><clipPath id="9b21a0b345"><path d="M 147.257812 222.425781 L 272.734375 166.507812 L 216.816406 41.03125 L 91.339844 96.949219 Z M 147.257812 222.425781 " clip-rule="nonzero"/></clipPath></defs><g clip-path="url(#307fb21c94)"><path fill="#004aad" d="M 112.753906 95.335938 L 107.421875 95.335938 L 107.382812 94.914062 C 106.757812 88.085938 101.351562 82.679688 94.523438 82.054688 L 94.101562 82.015625 L 94.101562 76.679688 C 94.101562 76.195312 93.703125 75.796875 93.21875 75.796875 C 92.730469 75.796875 92.335938 76.195312 92.335938 76.679688 L 92.335938 82.015625 L 91.914062 82.054688 C 85.085938 82.679688 79.675781 88.085938 79.054688 94.914062 L 79.015625 95.335938 L 73.679688 95.335938 C 73.191406 95.335938 72.796875 95.730469 72.796875 96.21875 C 72.796875 96.707031 73.191406 97.101562 73.679688 97.101562 L 79.015625 97.101562 L 79.054688 97.523438 C 79.675781 104.351562 85.085938 109.761719 91.914062 110.382812 L 92.335938 110.421875 L 92.335938 115.757812 C 92.335938 116.246094 92.730469 116.640625 93.21875 116.640625 C 93.707031 116.640625 94.101562 116.246094 94.101562 115.757812 L 94.101562 110.421875 L 94.523438 110.382812 C 101.351562 109.761719 106.757812 104.351562 107.382812 97.523438 L 107.421875 97.101562 L 112.757812 97.101562 C 113.242188 97.101562 113.640625 96.707031 113.640625 96.21875 C 113.640625 95.730469 113.242188 95.335938 112.753906 95.335938 Z M 100.367188 97.101562 L 105.65625 97.101562 L 105.597656 97.617188 C 104.957031 103.339844 100.335938 107.957031 94.617188 108.597656 L 94.101562 108.65625 L 94.101562 103.367188 C 94.101562 102.882812 93.703125 102.484375 93.21875 102.484375 C 92.730469 102.484375 92.335938 102.882812 92.335938 103.367188 L 92.335938 108.65625 L 91.816406 108.597656 C 86.097656 107.957031 81.480469 103.339844 80.835938 97.617188 L 80.78125 97.101562 L 86.066406 97.101562 C 86.554688 97.101562 86.953125 96.707031 86.953125 96.21875 C 86.953125 95.730469 86.554688 95.335938 86.066406 95.335938 L 80.78125 95.335938 L 80.835938 94.820312 C 81.480469 89.101562 86.097656 84.480469 91.816406 83.839844 L 92.335938 83.78125 L 92.335938 89.070312 C 92.335938 89.558594 92.730469 89.953125 93.21875 89.953125 C 93.703125 89.953125 94.101562 89.558594 94.101562 89.070312 L 94.101562 83.78125 L 94.617188 83.839844 C 100.335938 84.480469 104.957031 89.101562 105.597656 94.820312 L 105.65625 95.335938 L 100.367188 95.335938 C 99.878906 95.335938 99.484375 95.730469 99.484375 96.21875 C 99.484375 96.707031 99.878906 97.101562 100.367188 97.101562 Z M 100.367188 97.101562 " fill-opacity="1" fill-rule="nonzero"/></g><path fill="#004aad" d="M 93.21875 93.988281 C 91.988281 93.988281 90.988281 94.988281 90.988281 96.21875 C 90.988281 97.449219 91.988281 98.449219 93.21875 98.449219 C 94.449219 98.449219 95.449219 97.449219 95.449219 96.21875 C 95.449219 94.988281 94.449219 93.988281 93.21875 93.988281 Z M 93.21875 93.988281 " fill-opacity="1" fill-rule="nonzero"/><g clip-path="url(#0aa0fec0df)"><g clip-path="url(#2f8d2abf0a)"><g clip-path="url(#be5d29ef74)"><g clip-path="url(#b92a2a36f0)"><path fill="#004aad" d="M 61.890625 111.3125 C 70.78125 128.582031 92.019531 135.386719 109.289062 126.496094 C 126.558594 117.605469 133.363281 96.367188 124.472656 79.09375 C 115.582031 61.824219 94.34375 55.023438 77.074219 63.910156 C 59.800781 72.800781 53 94.042969 61.890625 111.3125 Z M 63.230469 110.621094 C 54.722656 94.089844 61.234375 73.761719 77.765625 65.253906 C 94.292969 56.746094 114.621094 63.257812 123.128906 79.785156 C 131.640625 96.316406 125.128906 116.644531 108.597656 125.152344 C 92.070312 133.660156 71.742188 127.148438 63.230469 110.621094 Z M 63.230469 110.621094 " fill-opacity="1" fill-rule="evenodd"/></g></g></g></g><g clip-path="url(#9ac81929dc)"><g clip-path="url(#a2c73e5f93)"><g clip-path="url(#1f310f08b8)"><g clip-path="url(#bb4d177538)"><path fill="#004aad" d="M 73.355469 44.285156 C 102.335938 32.59375 135.355469 46.628906 147.046875 75.609375 C 158.738281 104.589844 144.703125 137.609375 115.722656 149.300781 C 86.742188 160.992188 53.722656 146.957031 42.03125 117.976562 C 30.339844 88.996094 44.375 55.976562 73.355469 44.285156 Z M 74.261719 46.539062 C 46.527344 57.730469 33.09375 89.332031 44.285156 117.070312 C 55.472656 144.804688 87.078125 158.238281 114.8125 147.046875 C 142.550781 135.859375 155.984375 104.253906 144.792969 76.519531 C 133.601562 48.78125 102 35.347656 74.261719 46.539062 Z M 74.261719 46.539062 " fill-opacity="1" fill-rule="evenodd"/></g></g></g></g><g clip-path="url(#d9502e0cee)"><path fill="#004aad" d="M 28.917969 127.761719 L 48.425781 127.761719 L 48.425781 162.253906 L 28.917969 162.253906 Z M 108.332031 126.136719 L 72.28125 126.136719 C 72.148438 125.546875 72.078125 124.917969 72.199219 124.273438 C 72.503906 122.566406 73.621094 119.179688 75.414062 116.027344 C 76.734375 113.710938 77.277344 102.71875 74.839844 101.042969 C 72.402344 99.367188 69.066406 99.976562 67.390625 102.414062 L 64.390625 113.488281 L 58.378906 122.210938 C 57.296875 123.785156 51.660156 130.304688 51.660156 130.304688 L 51.660156 159.527344 L 61.023438 162.253906 L 81.746094 162.253906 C 84.710938 162.253906 87.097656 159.851562 87.097656 156.90625 C 87.097656 156.210938 86.964844 155.566406 86.726562 154.957031 C 89.0625 154.382812 90.824219 152.300781 90.824219 149.777344 C 90.824219 148.21875 90.148438 146.828125 89.078125 145.847656 C 91.535156 145.355469 93.398438 143.207031 93.398438 140.597656 C 93.398438 139.023438 92.703125 137.617188 91.621094 136.652344 L 108.332031 136.652344 C 111.226562 136.652344 113.582031 134.300781 113.582031 131.402344 C 113.582031 128.492188 111.226562 126.136719 108.332031 126.136719 Z M 108.332031 126.136719 " fill-opacity="1" fill-rule="nonzero"/></g><g clip-path="url(#054a47bff6)"><path fill="#f2b705" d="M 157.480469 59.183594 L 137.972656 59.183594 L 137.972656 24.691406 L 157.480469 24.691406 Z M 78.066406 60.808594 L 114.113281 60.808594 C 114.25 61.402344 114.316406 62.03125 114.199219 62.671875 C 113.894531 64.382812 112.777344 67.769531 110.980469 70.917969 C 109.660156 73.238281 109.121094 84.226562 111.558594 85.90625 C 113.996094 87.582031 117.332031 86.972656 119.007812 84.53125 L 122.003906 73.460938 L 128.015625 64.738281 C 129.101562 63.164062 134.738281 56.644531 134.738281 56.644531 L 134.738281 27.417969 L 125.375 24.691406 L 104.648438 24.691406 C 101.6875 24.691406 99.296875 27.097656 99.296875 30.042969 C 99.296875 30.738281 99.433594 31.382812 99.671875 31.992188 C 97.335938 32.566406 95.574219 34.648438 95.574219 37.171875 C 95.574219 38.730469 96.25 40.117188 97.316406 41.101562 C 94.863281 41.589844 93 43.742188 93 46.351562 C 93 47.925781 93.695312 49.328125 94.777344 50.296875 L 78.066406 50.296875 C 75.167969 50.296875 72.816406 52.648438 72.816406 55.542969 C 72.816406 58.457031 75.167969 60.808594 78.066406 60.808594 Z M 78.066406 60.808594 " fill-opacity="1" fill-rule="nonzero"/></g><g clip-path="url(#2f2c7d9957)"><g clip-path="url(#2bea7f3f92)"><g clip-path="url(#5027afb956)"><g clip-path="url(#23533aeacc)"><path fill="#004aad" d="M 124.53125 79.902344 C 115.640625 62.632812 94.402344 55.828125 77.132812 64.71875 C 59.863281 73.609375 53.058594 94.847656 61.949219 112.117188 C 70.839844 129.386719 92.078125 136.191406 109.347656 127.300781 C 126.621094 118.410156 133.421875 97.171875 124.53125 79.902344 Z M 123.191406 80.59375 C 131.699219 97.121094 125.1875 117.449219 108.65625 125.960938 C 92.128906 134.46875 71.800781 127.957031 63.292969 111.425781 C 54.78125 94.898438 61.292969 74.570312 77.824219 66.0625 C 94.351562 57.550781 114.679688 64.0625 123.191406 80.59375 Z M 123.191406 80.59375 " fill-opacity="1" fill-rule="evenodd"/></g></g></g></g><g clip-path="url(#273a8adfc8)"><g clip-path="url(#651d02944d)"><g clip-path="url(#a10828eb77)"><g clip-path="url(#9b21a0b345)"><path fill="#004aad" d="M 114.386719 148.667969 C 85.84375 161.386719 52.34375 148.542969 39.621094 120 C 26.898438 91.457031 39.746094 57.953125 68.289062 45.234375 C 96.832031 32.511719 130.332031 45.359375 143.054688 73.902344 C 155.773438 102.445312 142.929688 135.945312 114.386719 148.667969 Z M 113.398438 146.449219 C 140.714844 134.273438 153.011719 102.210938 140.835938 74.890625 C 128.660156 47.570312 96.597656 35.277344 69.277344 47.453125 C 41.960938 59.628906 29.664062 91.691406 41.839844 119.011719 C 54.015625 146.328125 86.078125 158.625 113.398438 146.449219 Z M 113.398438 146.449219 " fill-opacity="1" fill-rule="evenodd"/></g></g></g></g></svg>