<svg xmlns="http://www.w3.org/2000/svg" xmlns:xlink="http://www.w3.org/1999/xlink" width="250" zoomAndPan="magnify" viewBox="0 0 187.5 37.5" height="50" preserveAspectRatio="xMidYMid meet" version="1.0"><defs><g/><clipPath id="83a8aaee75"><path d="M 72.40625 4.589844 L 86 4.589844 L 86 29 L 72.40625 29 Z M 72.40625 4.589844 " clip-rule="nonzero"/></clipPath><clipPath id="9b9666b041"><path d="M 78 4.589844 L 101.5 4.589844 L 101.5 31.652344 L 78 31.652344 Z M 78 4.589844 " clip-rule="nonzero"/></clipPath><clipPath id="4453af8f5c"><path d="M 8.910156 4.589844 L 29.882812 4.589844 L 29.882812 10 L 8.910156 10 Z M 8.910156 4.589844 " clip-rule="nonzero"/></clipPath><clipPath id="4177f34c3f"><path d="M 8.910156 15 L 29.882812 15 L 29.882812 31.652344 L 8.910156 31.652344 Z M 8.910156 15 " clip-rule="nonzero"/></clipPath></defs><g clip-path="url(#83a8aaee75)"><path fill="#f2b705" d="M 76.972656 18.011719 C 76.972656 13.378906 80.507812 9.582031 85.074219 9.144531 L 85.074219 4.59375 C 78.003906 5.027344 72.40625 10.886719 72.40625 18.011719 C 72.40625 21.175781 73.519531 24.066406 75.34375 26.402344 C 75.820312 26.996094 76.335938 27.550781 76.972656 28.066406 Z M 76.972656 18.011719 " fill-opacity="1" fill-rule="evenodd"/></g><g clip-path="url(#9b9666b041)"><path fill="#f2b705" d="M 85.90625 26.957031 C 82.929688 26.957031 80.308594 25.53125 78.679688 23.277344 L 78.679688 29.371094 C 80.785156 30.71875 83.246094 31.46875 85.90625 31.46875 C 88.488281 31.46875 90.910156 30.757812 92.972656 29.449219 L 95 31.46875 L 101.390625 31.46875 L 96.390625 26.480469 C 96.785156 25.96875 97.183594 25.453125 97.5 24.9375 C 98.691406 22.921875 99.40625 20.542969 99.40625 18.011719 C 99.40625 10.886719 93.808594 5.027344 86.78125 4.59375 L 86.78125 9.144531 C 91.308594 9.582031 94.882812 13.378906 94.882812 18.011719 C 94.882812 19.277344 94.601562 20.503906 94.125 21.574219 C 93.847656 22.167969 93.53125 22.722656 93.171875 23.238281 C 92.257812 24.503906 91.070312 25.492188 89.640625 26.125 C 88.488281 26.679688 87.257812 26.957031 85.90625 26.957031 Z M 85.90625 26.957031 " fill-opacity="1" fill-rule="evenodd"/></g><g clip-path="url(#4453af8f5c)"><path fill="#004aad" d="M 22.039062 9.890625 L 29.449219 9.890625 L 29.449219 4.589844 L 8.914062 4.589844 L 8.914062 9.890625 Z M 22.039062 9.890625 " fill-opacity="1" fill-rule="nonzero"/></g><g clip-path="url(#4177f34c3f)"><path fill="#004aad" d="M 14.855469 26.4375 L 14.855469 20.722656 L 27.683594 20.722656 L 27.683594 15.417969 L 8.914062 15.417969 L 8.914062 31.777344 L 29.636719 31.777344 L 29.636719 26.4375 Z M 14.855469 26.4375 " fill-opacity="1" fill-rule="nonzero"/></g><g fill="#004aad" fill-opacity="1"><g transform="translate(29.643519, 31.556288)"><g><path d="M 2.9375 -1.96875 C 1.457031 -3.59375 0.71875 -5.582031 0.71875 -7.9375 C 0.71875 -10.289062 1.457031 -12.28125 2.9375 -13.90625 C 4.425781 -15.539062 6.316406 -16.359375 8.609375 -16.359375 C 10.722656 -16.359375 12.457031 -15.695312 13.8125 -14.375 L 13.8125 -26.640625 L 19.296875 -26.640625 L 19.296875 0 L 13.875 0 L 13.875 -1.796875 L 13.8125 -1.796875 C 12.457031 -0.285156 10.722656 0.46875 8.609375 0.46875 C 6.316406 0.46875 4.425781 -0.34375 2.9375 -1.96875 Z M 7.59375 -10.625 C 6.882812 -9.925781 6.53125 -9.03125 6.53125 -7.9375 C 6.53125 -6.84375 6.867188 -5.945312 7.546875 -5.25 C 8.234375 -4.5625 9.132812 -4.21875 10.25 -4.21875 C 11.320312 -4.21875 12.203125 -4.566406 12.890625 -5.265625 C 13.585938 -5.972656 13.9375 -6.863281 13.9375 -7.9375 C 13.9375 -9.03125 13.582031 -9.925781 12.875 -10.625 C 12.164062 -11.332031 11.289062 -11.6875 10.25 -11.6875 C 9.195312 -11.6875 8.3125 -11.332031 7.59375 -10.625 Z M 7.59375 -10.625 "/></g></g></g><g fill="#004aad" fill-opacity="1"><g transform="translate(50.810114, 31.556288)"><g><path d="M 7.03125 -15.890625 L 7.03125 -8.328125 C 7.03125 -6.765625 7.265625 -5.648438 7.734375 -4.984375 C 8.210938 -4.328125 9.019531 -4 10.15625 -4 C 11.289062 -4 12.097656 -4.328125 12.578125 -4.984375 C 13.054688 -5.648438 13.296875 -6.765625 13.296875 -8.328125 L 13.296875 -15.890625 L 18.78125 -15.890625 L 18.78125 -7 C 18.78125 -4.351562 18.09375 -2.445312 16.71875 -1.28125 C 15.34375 -0.113281 13.15625 0.46875 10.15625 0.46875 C 7.164062 0.46875 4.984375 -0.113281 3.609375 -1.28125 C 2.234375 -2.445312 1.546875 -4.351562 1.546875 -7 L 1.546875 -15.890625 Z M 7.03125 -15.890625 "/></g></g></g><g fill="#f2b705" fill-opacity="1"><g transform="translate(102.782671, 31.556288)"><g><path d="M 7.03125 -15.890625 L 7.03125 -8.328125 C 7.03125 -6.765625 7.265625 -5.648438 7.734375 -4.984375 C 8.210938 -4.328125 9.019531 -4 10.15625 -4 C 11.289062 -4 12.097656 -4.328125 12.578125 -4.984375 C 13.054688 -5.648438 13.296875 -6.765625 13.296875 -8.328125 L 13.296875 -15.890625 L 18.78125 -15.890625 L 18.78125 -7 C 18.78125 -4.351562 18.09375 -2.445312 16.71875 -1.28125 C 15.34375 -0.113281 13.15625 0.46875 10.15625 0.46875 C 7.164062 0.46875 4.984375 -0.113281 3.609375 -1.28125 C 2.234375 -2.445312 1.546875 -4.351562 1.546875 -7 L 1.546875 -15.890625 Z M 7.03125 -15.890625 "/></g></g></g><g fill="#f2b705" fill-opacity="1"><g transform="translate(123.112522, 31.556288)"><g><path d="M 2.9375 -1.96875 C 1.457031 -3.59375 0.71875 -5.582031 0.71875 -7.9375 C 0.71875 -10.289062 1.457031 -12.28125 2.9375 -13.90625 C 4.425781 -15.539062 6.316406 -16.359375 8.609375 -16.359375 C 10.722656 -16.359375 12.457031 -15.695312 13.8125 -14.375 L 13.8125 -15.890625 L 19.296875 -15.890625 L 19.296875 0 L 13.875 0 L 13.875 -1.796875 L 13.8125 -1.796875 C 12.457031 -0.285156 10.722656 0.46875 8.609375 0.46875 C 6.316406 0.46875 4.425781 -0.34375 2.9375 -1.96875 Z M 7.59375 -10.625 C 6.882812 -9.925781 6.53125 -9.03125 6.53125 -7.9375 C 6.53125 -6.84375 6.867188 -5.945312 7.546875 -5.25 C 8.234375 -4.5625 9.132812 -4.21875 10.25 -4.21875 C 11.320312 -4.21875 12.203125 -4.566406 12.890625 -5.265625 C 13.585938 -5.972656 13.9375 -6.863281 13.9375 -7.9375 C 13.9375 -9.03125 13.582031 -9.925781 12.875 -10.625 C 12.164062 -11.332031 11.289062 -11.6875 10.25 -11.6875 C 9.195312 -11.6875 8.3125 -11.332031 7.59375 -10.625 Z M 7.59375 -10.625 "/></g></g></g><g fill="#f2b705" fill-opacity="1"><g transform="translate(144.279117, 31.556288)"><g><path d="M 1.859375 0 L 1.859375 -26.640625 L 7.34375 -26.640625 L 7.34375 0 Z M 1.859375 0 "/></g></g></g><g fill="#f2b705" fill-opacity="1"><g transform="translate(153.483333, 31.556288)"><g><path d="M 2.375 -24.75 C 3.019531 -25.394531 3.785156 -25.71875 4.671875 -25.71875 C 5.566406 -25.71875 6.332031 -25.394531 6.96875 -24.75 C 7.613281 -24.113281 7.9375 -23.347656 7.9375 -22.453125 C 7.9375 -21.566406 7.613281 -20.800781 6.96875 -20.15625 C 6.332031 -19.519531 5.566406 -19.203125 4.671875 -19.203125 C 3.785156 -19.203125 3.019531 -19.519531 2.375 -20.15625 C 1.738281 -20.800781 1.421875 -21.566406 1.421875 -22.453125 C 1.421875 -23.347656 1.738281 -24.113281 2.375 -24.75 Z M 1.859375 -15.890625 L 1.859375 0 L 7.34375 0 L 7.34375 -15.890625 Z M 1.859375 -15.890625 "/></g></g></g><g fill="#f2b705" fill-opacity="1"><g transform="translate(162.842503, 31.556288)"><g><path d="M 8.765625 -16.359375 C 9.671875 -16.359375 10.566406 -16.253906 11.453125 -16.046875 C 12.347656 -15.835938 13.015625 -15.632812 13.453125 -15.4375 L 14.09375 -15.125 L 12.296875 -11.53125 C 11.054688 -12.1875 9.878906 -12.515625 8.765625 -12.515625 C 8.148438 -12.515625 7.710938 -12.445312 7.453125 -12.3125 C 7.191406 -12.175781 7.0625 -11.925781 7.0625 -11.5625 C 7.0625 -11.476562 7.070312 -11.394531 7.09375 -11.3125 C 7.113281 -11.226562 7.15625 -11.148438 7.21875 -11.078125 C 7.28125 -11.003906 7.335938 -10.941406 7.390625 -10.890625 C 7.441406 -10.835938 7.53125 -10.78125 7.65625 -10.71875 C 7.78125 -10.65625 7.878906 -10.609375 7.953125 -10.578125 C 8.023438 -10.546875 8.140625 -10.5 8.296875 -10.4375 C 8.460938 -10.375 8.585938 -10.328125 8.671875 -10.296875 C 8.753906 -10.265625 8.894531 -10.21875 9.09375 -10.15625 C 9.289062 -10.09375 9.441406 -10.050781 9.546875 -10.03125 C 10.179688 -9.851562 10.734375 -9.648438 11.203125 -9.421875 C 11.679688 -9.191406 12.1875 -8.878906 12.71875 -8.484375 C 13.25 -8.097656 13.65625 -7.601562 13.9375 -7 C 14.226562 -6.40625 14.375 -5.722656 14.375 -4.953125 C 14.375 -1.335938 11.863281 0.46875 6.84375 0.46875 C 5.707031 0.46875 4.628906 0.289062 3.609375 -0.0625 C 2.585938 -0.414062 1.847656 -0.765625 1.390625 -1.109375 L 0.71875 -1.671875 L 2.9375 -5.421875 C 3.101562 -5.273438 3.320312 -5.101562 3.59375 -4.90625 C 3.863281 -4.707031 4.347656 -4.4375 5.046875 -4.09375 C 5.753906 -3.757812 6.363281 -3.59375 6.875 -3.59375 C 8.007812 -3.59375 8.578125 -3.972656 8.578125 -4.734375 C 8.578125 -5.085938 8.429688 -5.363281 8.140625 -5.5625 C 7.859375 -5.757812 7.367188 -5.976562 6.671875 -6.21875 C 5.984375 -6.46875 5.441406 -6.695312 5.046875 -6.90625 C 4.054688 -7.425781 3.269531 -8.007812 2.6875 -8.65625 C 2.113281 -9.3125 1.828125 -10.175781 1.828125 -11.25 C 1.828125 -12.863281 2.453125 -14.117188 3.703125 -15.015625 C 4.953125 -15.910156 6.640625 -16.359375 8.765625 -16.359375 Z M 8.765625 -16.359375 "/></g></g></g></svg>